<svg width="444" height="126" viewBox="0 0 444 126" fill="none" xmlns="http://www.w3.org/2000/svg">
<path d="M20.2962 89.4768C17.1632 89.4768 14.3481 88.9319 11.8508 87.8422C9.39892 86.707 7.46919 85.1632 6.06162 83.2108C4.65405 81.213 3.92757 78.92 3.88216 76.3319H10.4886C10.7157 78.5568 11.6238 80.4411 13.213 81.9849C14.8476 83.4832 17.2086 84.2324 20.2962 84.2324C23.2476 84.2324 25.5632 83.5059 27.2432 82.053C28.9686 80.5546 29.8313 78.6476 29.8313 76.3319C29.8313 74.5157 29.3319 73.04 28.333 71.9049C27.3341 70.7697 26.0854 69.907 24.587 69.3168C23.0886 68.7265 21.0681 68.0908 18.5254 67.4097C15.3924 66.5924 12.8724 65.7751 10.9654 64.9578C9.10378 64.1405 7.49189 62.8692 6.12973 61.1438C4.81297 59.373 4.15459 57.0119 4.15459 54.0605C4.15459 51.4724 4.81297 49.1795 6.12973 47.1816C7.44649 45.1838 9.2854 43.64 11.6465 42.5503C14.053 41.4605 16.8 40.9157 19.8876 40.9157C24.3373 40.9157 27.9697 42.0281 30.7849 44.253C33.6454 46.4778 35.2573 49.4292 35.6205 53.107H28.8097C28.5827 51.2908 27.6292 49.7016 25.9492 48.3395C24.2692 46.9319 22.0443 46.2281 19.2746 46.2281C16.6865 46.2281 14.5751 46.9092 12.9405 48.2714C11.3059 49.5881 10.4886 51.4497 10.4886 53.8562C10.4886 55.5816 10.9654 56.9892 11.9189 58.0789C12.9178 59.1687 14.1211 60.0087 15.5286 60.5989C16.9816 61.1438 19.0022 61.7795 21.5903 62.5059C24.7232 63.3687 27.2432 64.2314 29.1503 65.0941C31.0573 65.9114 32.6919 67.2054 34.0541 68.9762C35.4162 70.7016 36.0973 73.0627 36.0973 76.0595C36.0973 78.3751 35.4843 80.5546 34.2584 82.5978C33.0324 84.6411 31.2162 86.2984 28.8097 87.5697C26.4032 88.8411 23.5654 89.4768 20.2962 89.4768ZM63.7433 50.9957C66.5585 50.9957 69.1012 51.6087 71.3714 52.8346C73.6417 54.0151 75.4125 55.8087 76.6839 58.2151C78.0006 60.6216 78.659 63.5503 78.659 67.0011V89H72.5293V67.8865C72.5293 64.1632 71.5985 61.3254 69.7368 59.373C67.8752 57.3751 65.3325 56.3762 62.1087 56.3762C58.8395 56.3762 56.2287 57.3978 54.2763 59.4411C52.3693 61.4843 51.4158 64.4584 51.4158 68.3632V89H45.2179V38.6H51.4158V56.9892C52.6417 55.0822 54.3217 53.6065 56.4558 52.5622C58.6352 51.5178 61.0644 50.9957 63.7433 50.9957ZM86.4675 70.2022C86.4675 66.3881 87.2394 63.0508 88.7832 60.1903C90.3269 57.2843 92.4383 55.0368 95.1172 53.4476C97.8415 51.8584 100.861 51.0638 104.176 51.0638C107.445 51.0638 110.283 51.7676 112.689 53.1751C115.096 54.5827 116.889 56.3535 118.07 58.4876V51.6768H124.336V89H118.07V82.053C116.844 84.2324 115.005 86.0486 112.553 87.5016C110.146 88.9092 107.331 89.613 104.107 89.613C100.793 89.613 97.7961 88.7957 95.1172 87.1611C92.4383 85.5265 90.3269 83.2335 88.7832 80.2822C87.2394 77.3308 86.4675 73.9708 86.4675 70.2022ZM118.07 70.2703C118.07 67.4551 117.502 65.0032 116.367 62.9146C115.232 60.8259 113.688 59.2368 111.736 58.147C109.829 57.0119 107.717 56.4443 105.402 56.4443C103.086 56.4443 100.975 56.9892 99.0675 58.0789C97.1605 59.1687 95.6394 60.7578 94.5042 62.8465C93.3691 64.9351 92.8015 67.387 92.8015 70.2022C92.8015 73.0627 93.3691 75.56 94.5042 77.6941C95.6394 79.7827 97.1605 81.3946 99.0675 82.5297C100.975 83.6195 103.086 84.1643 105.402 84.1643C107.717 84.1643 109.829 83.6195 111.736 82.5297C113.688 81.3946 115.232 79.7827 116.367 77.6941C117.502 75.56 118.07 73.0854 118.07 70.2703ZM141.007 57.7384C142.097 55.6043 143.641 53.947 145.639 52.7665C147.682 51.5859 150.156 50.9957 153.062 50.9957V57.3978H151.428C144.481 57.3978 141.007 61.1665 141.007 68.7038V89H134.809V51.6768H141.007V57.7384ZM194.271 68.9081C194.271 70.0886 194.203 71.3373 194.067 72.6541H164.235C164.462 76.3319 165.711 79.2151 167.981 81.3038C170.297 83.347 173.089 84.3686 176.358 84.3686C179.037 84.3686 181.262 83.7557 183.033 82.5297C184.849 81.2584 186.121 79.5784 186.847 77.4897H193.522C192.523 81.0768 190.525 84.0054 187.528 86.2757C184.531 88.5005 180.808 89.613 176.358 89.613C172.817 89.613 169.638 88.8184 166.823 87.2292C164.054 85.64 161.874 83.3924 160.285 80.4865C158.696 77.5351 157.901 74.1297 157.901 70.2703C157.901 66.4108 158.673 63.0281 160.217 60.1222C161.761 57.2162 163.917 54.9914 166.687 53.4476C169.502 51.8584 172.726 51.0638 176.358 51.0638C179.9 51.0638 183.033 51.8357 185.757 53.3795C188.482 54.9232 190.57 57.0573 192.023 59.7816C193.522 62.4605 194.271 65.5027 194.271 68.9081ZM187.869 67.6141C187.869 65.253 187.347 63.2324 186.302 61.5524C185.258 59.827 183.828 58.533 182.011 57.6703C180.241 56.7622 178.266 56.3081 176.086 56.3081C172.953 56.3081 170.274 57.307 168.049 59.3049C165.87 61.3027 164.621 64.0724 164.303 67.6141H187.869Z" fill="black"/>
<rect x="222.054" width="221.351" height="126" rx="17.027" fill="#2B8D24"/>
<path d="M287.166 41.1517V46.1917H274.225V88.623H268.027V46.1917H255.019V41.1517H287.166ZM300.993 57.3614C302.083 55.2274 303.626 53.5701 305.624 52.3895C307.667 51.209 310.142 50.6187 313.048 50.6187V57.0209H311.413C304.466 57.0209 300.993 60.7895 300.993 68.3268V88.623H294.795V51.2998H300.993V57.3614ZM323.404 45.2382C322.223 45.2382 321.224 44.8295 320.407 44.0122C319.59 43.1949 319.181 42.196 319.181 41.0155C319.181 39.8349 319.59 38.836 320.407 38.0187C321.224 37.2014 322.223 36.7928 323.404 36.7928C324.539 36.7928 325.492 37.2014 326.264 38.0187C327.081 38.836 327.49 39.8349 327.49 41.0155C327.49 42.196 327.081 43.1949 326.264 44.0122C325.492 44.8295 324.539 45.2382 323.404 45.2382ZM326.4 51.2998V88.623H320.203V51.2998H326.4ZM343.161 58.1787C344.387 56.0447 346.203 54.2739 348.61 52.8663C351.062 51.4133 353.9 50.6868 357.123 50.6868C360.438 50.6868 363.435 51.4814 366.114 53.0706C368.838 54.6598 370.972 56.9074 372.516 59.8133C374.06 62.6739 374.832 66.0112 374.832 69.8252C374.832 73.5939 374.06 76.9539 372.516 79.9052C370.972 82.8566 368.838 85.1495 366.114 86.7841C363.435 88.4187 360.438 89.236 357.123 89.236C353.945 89.236 351.13 88.5322 348.678 87.1247C346.272 85.6717 344.433 83.8782 343.161 81.7441V106.331H336.963V51.2998H343.161V58.1787ZM368.498 69.8252C368.498 67.0101 367.93 64.5582 366.795 62.4695C365.66 60.3809 364.116 58.7917 362.163 57.702C360.256 56.6122 358.145 56.0674 355.829 56.0674C353.559 56.0674 351.448 56.6349 349.495 57.7701C347.588 58.8598 346.045 60.4717 344.864 62.6058C343.729 64.6944 343.161 67.1236 343.161 69.8933C343.161 72.7085 343.729 75.183 344.864 77.3171C346.045 79.4058 347.588 81.0176 349.495 82.1528C351.448 83.2425 353.559 83.7874 355.829 83.7874C358.145 83.7874 360.256 83.2425 362.163 82.1528C364.116 81.0176 365.66 79.4058 366.795 77.3171C367.93 75.183 368.498 72.6858 368.498 69.8252ZM396.203 89.236C393.342 89.236 390.777 88.7593 388.506 87.8057C386.236 86.8068 384.443 85.4447 383.126 83.7193C381.809 81.9485 381.083 79.9279 380.946 77.6576H387.349C387.53 79.5193 388.393 81.0403 389.937 82.2209C391.526 83.4014 393.592 83.9917 396.135 83.9917C398.496 83.9917 400.357 83.4695 401.719 82.4252C403.082 81.3809 403.763 80.0641 403.763 78.4749C403.763 76.8403 403.036 75.6371 401.583 74.8652C400.13 74.0479 397.883 73.2533 394.84 72.4814C392.071 71.7549 389.8 71.0285 388.03 70.302C386.304 69.5301 384.806 68.4176 383.535 66.9647C382.309 65.4663 381.696 63.5139 381.696 61.1074C381.696 59.2003 382.263 57.4522 383.398 55.863C384.533 54.2739 386.145 53.0252 388.234 52.1171C390.323 51.1636 392.706 50.6868 395.385 50.6868C399.517 50.6868 402.855 51.7312 405.397 53.8198C407.94 55.9085 409.302 58.769 409.484 62.4014H403.286C403.15 60.449 402.355 58.8825 400.902 57.702C399.495 56.5214 397.587 55.9312 395.181 55.9312C392.956 55.9312 391.185 56.4079 389.869 57.3614C388.552 58.3149 387.893 59.5636 387.893 61.1074C387.893 62.3333 388.279 63.3549 389.051 64.1722C389.869 64.9441 390.868 65.5798 392.048 66.0793C393.274 66.5333 394.954 67.0555 397.088 67.6457C399.767 68.3722 401.946 69.0987 403.626 69.8252C405.306 70.5063 406.737 71.5506 407.917 72.9582C409.143 74.3658 409.779 76.2047 409.824 78.4749C409.824 80.5182 409.257 82.3571 408.122 83.9917C406.986 85.6263 405.375 86.9203 403.286 87.8739C401.243 88.782 398.882 89.236 396.203 89.236Z" fill="white"/>
</svg>
